HIERARCHY
ROOT joint_Root
{
	OFFSET 0.0 0.0 0.0
	CHANNELS 6 Xposition Yposition Zposition Zrotation Xrotation Yrotation 
	JOINT Hips
	{
		OFFSET 4.5925 91.4895 -427.239
		CHANNELS 6 Xposition Yposition Zposition Zrotation Xrotation Yrotation 
		JOINT Spine
		{
			OFFSET 15.7357 0.0 0.0
			CHANNELS 6 Xposition Yposition Zposition Zrotation Xrotation Yrotation 
			JOINT Chest
			{
				OFFSET 8.98455 -0.406207 0.0
				CHANNELS 6 Xposition Yposition Zposition Zrotation Xrotation Yrotation 
				JOINT Neck
				{
					OFFSET 16.3773 0.0 0.0
					CHANNELS 6 Xposition Yposition Zposition Zrotation Xrotation Yrotation 
					JOINT Head
					{
						OFFSET 6.45672 0.0 0.0
						CHANNELS 6 Xposition Yposition Zposition Zrotation Xrotation Yrotation 
						End Site
						{
							OFFSET 0.0 0.0 0.0
						}
					}
				}
				JOINT Shoulder_L
				{
					OFFSET 12.9942 -0.242716 4.98039
					CHANNELS 6 Xposition Yposition Zposition Zrotation Xrotation Yrotation 
					JOINT UpperArm_L
					{
						OFFSET 5.34809 0.0 0.0
						CHANNELS 6 Xposition Yposition Zposition Zrotation Xrotation Yrotation 
						JOINT LowerArm_L
						{
							OFFSET 24.3286 1.87007e-05 0.0
							CHANNELS 6 Xposition Yposition Zposition Zrotation Xrotation Yrotation 
							JOINT Hand_L
							{
								OFFSET 22.2916 0.0 0.0
								CHANNELS 6 Xposition Yposition Zposition Zrotation Xrotation Yrotation 
								End Site
								{
									OFFSET 0.0 0.0 0.0
								}
							}
						}
					}
				}
				JOINT Shoulder_R
				{
					OFFSET 12.9945 -0.242716 -4.98039
					CHANNELS 6 Xposition Yposition Zposition Zrotation Xrotation Yrotation 
					JOINT UpperArm_R
					{
						OFFSET -5.34813 0.0 0.0
						CHANNELS 6 Xposition Yposition Zposition Zrotation Xrotation Yrotation 
						JOINT LowerArm_R
						{
							OFFSET -24.3289 0.000322201 0.0
							CHANNELS 6 Xposition Yposition Zposition Zrotation Xrotation Yrotation 
							JOINT Hand_R
							{
								OFFSET -22.2915 -0.000108084 0.0
								CHANNELS 6 Xposition Yposition Zposition Zrotation Xrotation Yrotation 
								End Site
								{
									OFFSET 0.0 0.0 0.0
								}
							}
						}
					}
				}
			}
		}
		JOINT UpperLeg_L
		{
			OFFSET -2.19248 -6.46944 0.0
			CHANNELS 6 Xposition Yposition Zposition Zrotation Xrotation Yrotation 
			JOINT LowerLeg_L
			{
				OFFSET 39.0811 0.0 -1.23785e-05
				CHANNELS 6 Xposition Yposition Zposition Zrotation Xrotation Yrotation 
				JOINT Foot_L
				{
					OFFSET 40.9854 0.0 -1.26872e-05
					CHANNELS 6 Xposition Yposition Zposition Zrotation Xrotation Yrotation 
					JOINT Toes_L
					{
						OFFSET 11.7543 0.0 0.0
						CHANNELS 6 Xposition Yposition Zposition Zrotation Xrotation Yrotation 
						End Site
						{
							OFFSET 0.0 0.0 0.0
						}
					}
				}
			}
		}
		JOINT UpperLeg_R
		{
			OFFSET -2.19251 6.46944 0.0
			CHANNELS 6 Xposition Yposition Zposition Zrotation Xrotation Yrotation 
			JOINT LowerLeg_R
			{
				OFFSET -39.0811 -0.00228153 -0.0401928
				CHANNELS 6 Xposition Yposition Zposition Zrotation Xrotation Yrotation 
				JOINT Foot_R
				{
					OFFSET -40.9854 0.0 0.0
					CHANNELS 6 Xposition Yposition Zposition Zrotation Xrotation Yrotation 
					JOINT Toes_R
					{
						OFFSET -11.7543 0.0 0.0
						CHANNELS 6 Xposition Yposition Zposition Zrotation Xrotation Yrotation 
						End Site
						{
							OFFSET 0.0 0.0 0.0
						}
					}
				}
			}
		}
	}
}
MOTION
Frames:	5
Frame Time:	0.0333333
0.000000 0.000000 0.000000 0.000000 0.000000 -0.000000 0.366508 92.478100 407.420000 -87.632600 15.876200 167.658000 15.735700 0.000005 -0.000001 127.041000 79.350700 -129.945000 8.984550 -0.406207 -0.000000 9.744350 12.706300 -6.910210 16.377300 -0.000001 -0.000001 -1.344470 -2.399860 1.448290 6.456720 -0.000001 -0.000000 -8.829250 -8.282150 3.731200 12.994200 -0.242716 4.980390 -86.604600 -8.533230 -68.207200 5.348090 -0.000007 -0.000001 -67.975800 17.736000 35.118400 24.328600 0.000019 0.000005 25.777200 12.831400 -65.308300 22.291600 -0.000001 0.000005 2.267490 5.565470 -9.468460 12.994500 -0.242716 -4.980390 90.366200 -3.391780 -83.839700 -5.348130 -0.000001 -0.000004 -52.009400 29.108000 -44.607500 -24.328900 0.000322 -0.000009 4.458180 -1.561580 -109.247000 -22.291500 -0.000108 -0.000004 16.386100 5.512790 -7.009340 -2.192480 -6.469440 -0.000000 173.051000 -17.840800 -36.513300 39.081100 -0.000007 -0.000012 -0.007995 0.021735 20.195900 40.985400 -0.000006 -0.000013 -4.126550 0.250485 -75.079000 11.754300 -0.000000 0.000003 -0.003753 -0.048849 -18.563700 -2.192510 6.469440 -0.000001 167.756000 7.513020 -169.624000 -39.081100 -0.002282 -0.040193 0.372541 -0.328243 48.368100 -40.985400 0.000008 0.000006 -2.533780 10.016500 -22.628800 -11.754300 -0.000006 -0.000006 -0.013529 -0.128349 -21.807600
0.000000 0.000000 0.000000 0.000000 0.000000 -0.000000 0.570999 89.390000 399.071000 -87.864100 15.268600 168.776000 15.735700 0.000005 -0.000001 121.437000 79.531200 -124.554000 8.984550 -0.406207 -0.000000 10.539300 10.772300 -7.241820 16.377300 -0.000001 -0.000001 -2.671390 -2.005460 2.571060 6.456720 -0.000001 -0.000000 -10.419300 -6.639390 3.212710 12.994200 -0.242716 4.980390 -89.031500 -2.586770 -69.504200 5.348090 -0.000007 -0.000001 -64.669400 9.873850 30.310200 24.328600 0.000019 0.000005 16.751000 7.794180 -65.753500 22.291600 -0.000001 0.000005 6.564290 5.565690 -9.463640 12.994500 -0.242716 -4.980390 90.020800 -0.196785 -83.922500 -5.348130 -0.000001 -0.000004 -56.626200 34.174300 -35.317600 -24.328900 0.000322 -0.000009 4.079760 -0.629317 -98.809200 -22.291500 -0.000108 -0.000004 24.048700 5.536740 -8.103430 -2.192480 -6.469440 -0.000000 171.313000 -19.071900 -40.610600 39.081100 -0.000007 -0.000012 0.804828 -1.072650 36.885000 40.985400 -0.000006 -0.000013 5.771890 -2.561470 -74.804900 11.754300 -0.000000 0.000003 -0.004849 -0.060006 -19.018200 -2.192510 6.469440 -0.000001 170.590000 2.613650 -176.396000 -39.081100 -0.002282 -0.040193 0.398094 -0.155030 68.569500 -40.985400 0.000008 0.000006 -6.261630 11.235700 -17.209800 -11.754300 -0.000006 -0.000006 -0.013014 -0.124929 -21.667400
0.000000 0.000000 0.000000 0.000000 0.000000 -0.000000 0.094250 85.799700 391.753000 -90.673700 14.663300 168.541000 15.735700 0.000005 -0.000001 112.962000 80.371900 -117.176000 8.984550 -0.406207 -0.000000 10.314600 7.369670 -9.099140 16.377300 -0.000001 -0.000001 -4.111070 -1.066230 2.813060 6.456720 -0.000001 -0.000000 -12.404300 -4.916170 3.883020 12.994200 -0.242716 4.980390 -91.382800 4.078230 -71.226000 5.348090 -0.000007 -0.000001 -60.778400 0.213425 23.700500 24.328600 0.000019 0.000005 6.632060 2.906620 -66.458800 22.291600 -0.000001 0.000005 11.526100 5.563830 -9.443320 12.994500 -0.242716 -4.980390 89.572900 4.040810 -83.959200 -5.348130 -0.000001 -0.000004 -59.747600 36.621500 -26.046000 -24.328900 0.000322 -0.000009 5.322530 0.491235 -84.755300 -22.291500 -0.000108 -0.000004 29.048200 5.566480 -9.515330 -2.192480 -6.469440 -0.000000 168.804000 -16.020500 -44.460900 39.081100 -0.000007 -0.000012 0.440960 -0.378331 49.371800 40.985400 -0.000006 -0.000013 7.037600 -2.082800 -69.403800 11.754300 -0.000000 0.000003 -0.002053 -0.029378 -17.771300 -2.192510 6.469440 -0.000001 169.576000 0.667813 170.214000 -39.081100 -0.002282 -0.040193 0.378263 0.018222 92.795500 -40.985400 0.000008 0.000006 -9.353660 8.425370 -10.787300 -11.754300 -0.000006 -0.000006 -0.012944 -0.124456 -21.648000
0.000000 0.000000 0.000000 0.000000 0.000000 -0.000000 -0.396346 82.075000 384.745000 -93.574800 11.994400 169.963000 15.735700 0.000005 -0.000001 100.203000 80.472300 -105.268000 8.984550 -0.406207 -0.000000 11.163600 3.198990 -10.440700 16.377300 -0.000001 -0.000001 -6.157650 -0.727867 2.044820 6.456720 -0.000001 -0.000000 -12.153600 -3.345270 5.025770 12.994200 -0.242716 4.980390 -92.473000 8.470630 -73.653100 5.348090 -0.000007 -0.000001 -60.431400 -7.279130 12.206200 24.328600 0.000019 0.000005 1.920990 0.694687 -70.200100 22.291600 -0.000001 0.000005 18.244000 5.539420 -8.213860 12.994500 -0.242716 -4.980390 89.267000 7.869400 -84.662600 -5.348130 -0.000001 -0.000004 -64.334400 33.630700 -14.664400 -24.328900 0.000322 -0.000009 3.915010 1.676060 -66.609200 -22.291500 -0.000108 -0.000004 24.130100 5.589190 -10.727800 -2.192480 -6.469440 -0.000000 167.614000 -8.676470 -43.364500 39.081100 -0.000007 -0.000012 -0.218222 0.122275 60.738000 40.985400 -0.000006 -0.000013 5.085440 -7.083120 -79.691900 11.754300 -0.000000 0.000003 -0.000001 -0.000014 -16.578000 -2.192510 6.469440 -0.000001 168.301000 0.338452 155.936000 -39.081100 -0.002282 -0.040193 0.171891 0.077904 114.830000 -40.985400 0.000008 0.000006 -11.526200 7.860370 -4.468610 -11.754300 -0.000006 -0.000006 -0.012596 -0.122110 -21.551800
0.000000 0.000000 0.000000 0.000000 0.000000 -0.000000 -0.705490 79.125400 377.296000 -96.350700 7.244210 172.737000 15.735700 0.000005 -0.000001 91.310800 79.587500 -96.555900 8.984550 -0.406207 -0.000000 13.085800 0.227464 -10.517000 16.377300 -0.000001 -0.000001 -6.363330 -1.914080 0.515583 6.456720 -0.000001 -0.000000 -11.838100 -3.079510 4.608380 12.994200 -0.242716 4.980390 -92.049900 8.541260 -76.455900 5.348090 -0.000007 -0.000001 -67.102500 -6.576260 -5.969580 24.328600 0.000019 0.000005 -0.501729 -0.118247 -76.828600 22.291600 -0.000001 0.000005 16.456600 5.565290 -9.478130 12.994500 -0.242716 -4.980390 88.895100 8.835800 -82.842200 -5.348130 -0.000001 -0.000004 -65.998700 31.769500 -4.995280 -24.328900 0.000322 -0.000009 -2.336260 -2.602350 -42.003500 -22.291500 -0.000108 -0.000004 20.675300 5.544620 -8.468480 -2.192480 -6.469440 -0.000000 165.208000 -4.363480 -37.047600 39.081100 -0.000007 -0.000012 -0.427049 0.184029 66.688200 40.985400 -0.000006 -0.000013 4.710820 -8.300390 -88.592700 11.754300 -0.000000 0.000003 -0.000067 -0.000733 -16.605900 -2.192510 6.469440 -0.000001 167.092000 0.766230 142.007000 -39.081100 -0.002282 -0.040193 -0.118158 -0.102784 130.205000 -40.985400 0.000008 0.000006 -12.815400 6.703000 2.026000 -11.754300 -0.000006 -0.000006 -0.012191 -0.119339 -21.438300
